<?xml version="1.0" encoding="utf-8"?>
<!-- Generator: Adobe Illustrator 16.0.0, SVG Export Plug-In . SVG Version: 6.00 Build 0)  -->
<!DOCTYPE svg PUBLIC "-//W3C//DTD SVG 1.1//EN" "http://www.w3.org/Graphics/SVG/1.1/DTD/svg11.dtd">
<svg version="1.1" id="Layer_1" xmlns="http://www.w3.org/2000/svg" xmlns:xlink="http://www.w3.org/1999/xlink" x="0px" y="0px"
	 width="2000px" height="2000px" viewBox="0 0 2000 2000" enable-background="new 0 0 2000 2000" xml:space="preserve">
<g>
	<g>
		<linearGradient id="SVGID_1_" gradientUnits="userSpaceOnUse" x1="14.7041" y1="1000" x2="1985.2949" y2="1000">
			<stop  offset="0" style="stop-color:#29ABE2"/>
			<stop  offset="1" style="stop-color:#0000FF"/>
		</linearGradient>
		<path fill-rule="evenodd" clip-rule="evenodd" fill="url(#SVGID_1_)" d="M645.531,1594.623
			c-75.799,1.723-141.428,20.982-205.883,50.347c-31.438,14.325-68.674,16.649-103.645,22.112
			c-13.049,2.035-21.092,4.68-27.836,17.331c-28.275,53.029-68.934,92.656-125.488,116.487
			c-48.762,20.548-81.285,60.737-110.508,103.118c-15.389,22.306-28.99,45.846-45.299,71.866
			c-15.072-40.856-14.016-79.464-8.193-117.561c10.988-71.879,31.922-141.297,72.797-201.86
			c48.689-72.144,63.527-148.348,46.184-233.401c-32.076-157.287-40.395-316.342-28.877-476.419
			c15.1-209.821,103.5-385.629,249.42-534.259c69.068-70.358,145.793-130.901,234.193-175.734
			c6.459-3.279,12.641-7.334,18.375-11.78c25.439-19.746,28.107-42.605,2.65-62.551c-23.279-18.241-49.766-33.438-76.826-45.534
			c-35.846-16.025-73.629-27.733-113.047-42.204C498.631,34.187,577.191,15.768,659.242,27.7
			c62.896,9.146,125.938,23.695,186.047,44.242c123.811,42.325,249.264,76.117,378.861,94.333
			c150.727,21.189,284.287,85.89,412.672,163.439c22.168,13.39,44.385,27.041,64.887,42.77
			c67.725,51.942,110.008,114.695,80.588,205.473c36.934,18.363,73.76,34.915,108.777,54.658
			c27.363,15.424,54.09,32.886,78.16,52.971c25.553,21.327,20.068,45.972-12.559,48.549c-50.33,3.974-101.787,3.26-151.918-2.651
			c-46.299-5.457-91.107-22.485-137.242-30.6c-64.727-11.387-129.629-5.493-192.729,11.278
			c-130.293,34.63-262.219,40.314-395.354,25.383c-18.824-2.11-24.752,2.639-30.684,19.144
			c-57.467,159.981-169.713,268.837-320.895,340.802c-4.012,1.911-8.416,3.013-16.195,5.736
			c75.615-111.161,72.141-231.082,61.139-355.469c-172.207,31.6-316.377,100.707-402.693,256.254
			c-67.313,121.293-105.846,252.087-103.975,392.29c0.268,20.29,7.074,41.728,15.713,60.382
			c12.555,27.096,35.189,40.177,66.951,37.763c106.9-8.122,200.84,26.398,285.572,89.585
			C637.35,1586.262,639.828,1589.172,645.531,1594.623z"/>
	</g>
</g>
</svg>
